<svg width="135" height="64" xmlns="http://www.w3.org/2000/svg" xmlns:xlink="http://www.w3.org/1999/xlink"><defs><linearGradient x1="0%" y1="50.001%" x2="100%" y2="50.001%" id="b"><stop stop-color="#2A2B72" offset="0%"/><stop stop-color="#21977E" offset="100%"/></linearGradient><path d="M25.883.63c-3.737.493-7.356 1.737-10.753 3.697-3.434 1.983-6.343 4.543-8.647 7.61-2.309 3.08-3.984 6.47-4.975 10.07-.99 3.596-1.27 7.354-.83 11.167.44 3.806 1.647 7.498 3.587 10.973.827 1.393 1.905 2.555 3.181 3.413 1.314.883 2.749 1.5 4.266 1.834 1.534.337 3.128.398 4.737.182a11.81 11.81 0 004.497-1.581l.792-.47c.183-.109.336-.218.453-.325l.086-.073c1.375-1.099 2.453-2.392 3.206-3.845l.617-1.188 1.32.224c2.997.513 5.801.015 8.574-1.52.202-.121.44-.276.66-.434.29-.205.55-.38.799-.531a12.554 12.554 0 003.041-3.406 13.478 13.478 0 001.672-4.252c.307-1.482.345-3.01.113-4.543a13.196 13.196 0 00-1.525-4.437 13.693 13.693 0 00-3.414-3.878c-1.348-1.035-2.825-1.771-4.39-2.187a13.423 13.423 0 00-4.958-.347c-1.678.187-3.307.747-4.844 1.66l-.79.471a4.273 4.273 0 00-.578.413l-.054.042a13.122 13.122 0 00-3.091 3.418 12.875 12.875 0 00-1.68 4.194 13.479 13.479 0 00-.125 4.616 11.82 11.82 0 001.553 4.386l.132.243c.837 1.823.318 3.572-1.356 4.569-.876.52-1.831.646-2.763.367-.875-.265-1.594-.84-2.083-1.664-1.341-2.38-2.162-4.888-2.462-7.49-.297-2.598-.1-5.153.588-7.597a20.96 20.96 0 013.366-6.806 18.863 18.863 0 015.911-5.189c4.732-2.672 9.777-3.33 14.995-1.955a20.189 20.189 0 016.96 3.421 19.037 19.037 0 015.088 5.855c1.314 2.331 2.151 4.803 2.486 7.344.337 2.56.13 5.17-.617 7.753-.681 2.51-1.92 4.766-3.364 6.897-3.244 4.789-4.599 7.57-15.834 16.865 0 0 3.181-.164 4.554-.401 1.91-.329 3.597-.721 5.016-1.168 1.404-.44 2.545-.873 3.391-1.288 1.156-.568 1.557-.787 1.694-.87a30.766 30.766 0 003.133-2.138c5.204-3.949 8.705-9.142 10.423-15.449 1.037-3.78 1.313-7.59.82-11.33-.495-3.753-1.717-7.397-3.633-10.83-1.905-3.413-4.402-6.304-7.423-8.593a30.926 30.926 0 00-10.226-5.085A28.865 28.865 0 0029.506.391c-1.213 0-2.421.08-3.623.238M28.3 34.173c-1.294-.329-2.29-1.106-2.886-2.253-.57-.99-.758-2.1-.541-3.215a4.747 4.747 0 011.687-2.812l.23-.162.359-.214c1.085-.646 2.33-.816 3.6-.493 1.267.323 2.279 1.068 2.923 2.154l.062.115c.546 1.083.696 2.19.451 3.288a4.792 4.792 0 01-1.532 2.582 2.875 2.875 0 01-.712.59l-.114.063a4.902 4.902 0 01-2.215.525c-.433 0-.873-.055-1.312-.168" id="a"/></defs><g fill="none" fill-rule="evenodd"><path d="M1.667 23.278c0 .654.118 1.129.354 1.423.237.294.655.442 1.256.442h6.087v-5.921c0-2.289 1.053-3.434 3.157-3.434h3.994v7.425c0 2.289-1.052 3.434-3.157 3.434H3.31c-2.105 0-3.156-1.145-3.156-3.434v-3.01l1.514-.98v4.055zm9.211 1.865h2.512c.602 0 1.02-.148 1.257-.443.236-.294.354-.768.354-1.423v-5.984H12.49c-.603 0-1.02.147-1.256.44-.237.295-.355.77-.355 1.424v5.986zm1.16-13.248c0-.282.097-.522.29-.72a.958.958 0 01.708-.294c.279 0 .515.099.708.295a.984.984 0 01.291.72.983.983 0 01-.29.719.957.957 0 01-.709.294.958.958 0 01-.708-.294.987.987 0 01-.29-.72zm7.504 7.327c0-2.289 1.052-3.434 3.157-3.434h3.994v11.186c0 .807-.076 1.532-.225 2.174-.151.644-.409 1.195-.774 1.653-.365.458-.865.828-1.497 1.112-.634.282-1.444.458-2.433.523l-.965-1.341c1.502-.044 2.609-.35 3.317-.916.709-.567 1.063-1.472 1.063-2.714v-.818h-2.48c-2.105 0-3.157-1.145-3.157-3.434v-3.991zm1.514 4.055c0 .655.118 1.13.355 1.423.235.295.655.443 1.255.443h2.513v-7.85h-2.513c-.6 0-1.02.147-1.255.44-.237.295-.355.77-.355 1.424v4.12zm11.627 4.514c0 .61-.043 1.14-.129 1.587a3.559 3.559 0 01-.45 1.193c-.215.35-.511.67-.886.965-.376.295-.844.595-1.402.9l-1.062-1.373a10.68 10.68 0 001.176-.622c.311-.196.558-.415.74-.654.181-.24.312-.513.387-.818.075-.306.113-.687.113-1.144V15.788h1.513v9.355h1.257v1.504h-1.257v1.144zm10.242-1.144c-.73 0-1.331-.218-1.803-.654-.473.436-1.075.654-1.804.654h-5.54v-1.504h6.248a30.774 30.774 0 00-1.706-2.012 26.54 26.54 0 00-2.094-1.979v-.295c0-.762.118-1.46.355-2.092a4.589 4.589 0 012.575-2.699 5.069 5.069 0 011.966-.376 5.046 5.046 0 011.964.375 4.587 4.587 0 012.577 2.7c.236.632.354 1.33.354 2.092v.294a26.323 26.323 0 00-2.093 1.979 30.55 30.55 0 00-1.707 2.012h5.282v1.505h-4.574zm-1.803-2.487a32.775 32.775 0 011.739-2.142c.257-.294.52-.577.788-.85l.855-.867c-.108-.937-.479-1.684-1.112-2.24-.633-.556-1.39-.835-2.27-.834-.881 0-1.638.278-2.272.834-.633.556-1.003 1.303-1.11 2.24l.853.867c.269.273.532.556.79.85.257.295.526.61.804.95.279.337.59.735.935 1.192zm8.663-4.97c0-1.157.3-2.029.902-2.617.6-.59 1.48-.884 2.641-.884 1.16 0 2.05.295 2.672.884.623.588.936 1.46.936 2.616v6.705c0 2.31-1.203 3.467-3.608 3.467-.967 0-1.755-.218-2.368-.654-.612-.436-1.004-1.123-1.175-2.06h-2.448v-1.505h2.448V19.19zm1.514 6.704c0 .698.166 1.199.5 1.504.332.306.842.459 1.53.459.73 0 1.26-.153 1.593-.459.333-.305.5-.806.5-1.504v-6.737c0-.699-.167-1.2-.5-1.505-.333-.306-.864-.458-1.594-.458-.687 0-1.197.152-1.53.458-.333.305-.499.806-.499 1.505v6.737zM7.795 40.415l.147-1.955-2.412 7.414c-.149.408-.508.687-.93.687-.319 0-.721-.214-.911-.624L1.36 38.31l.148 2.106v10.831H.155V37.321c-.02-1.462 1.905-1.44 2.2-.28.91 2.816 1.418 5.2 2.222 8.016.868-2.644 1.566-5.524 2.392-8.08.402-1.225 2.137-1.182 2.2.3v13.97H7.816v-.088h-.02V40.415zm9.543 5.545h-3.979c-.719 2.814-1.078 4.169-1.332 5.286h-1.46l3.555-14.162c.21-.688.761-1.053 1.248-1.053.466 0 1.037.408 1.206 1.031l3.62 14.184h-1.504l-1.354-5.287zm-1.926-8.403l-1.736 7.027H17l-1.587-7.027zm-.042-.194l.042.194c0-.043 0-.065.022-.107l-.064-.087zm7.406-1.182h2.962c1.948 0 3.386 1.462 3.386 3.44v2.299c0 1.053-.995 2.6-2.285 2.772 1.418.193 2.348 1.74 2.348 2.814v3.74h-1.375v-3.74c0-1.203-1.376-2.105-2.477-2.105h-2.412v5.845H21.57V37.427c0-.73.486-1.246 1.207-1.246zm.147 1.397v-.085c-.02.043-.042.085-.105.085h.105zm0 0v6.426h2.412c1.1 0 2.413-.903 2.413-2.084v-2.3c0-1.118-.867-2.042-2.01-2.042h-2.815zm7.998 2.02c0-2.343 1.926-3.524 3.893-3.524 1.948 0 3.895 1.181 3.895 3.524v8.23c0 2.365-1.947 3.547-3.895 3.547-1.967 0-3.893-1.182-3.893-3.546v-8.23zm1.355 8.23c0 1.42 1.249 2.15 2.538 2.15 1.27 0 2.52-.73 2.52-2.15v-8.23c0-1.396-1.25-2.127-2.52-2.127-1.29 0-2.538.73-2.538 2.127v8.23zm8.4-8.23c0-2.342 1.926-3.524 3.894-3.524 1.947 0 3.894 1.182 3.894 3.524v8.23c0 2.365-1.947 3.547-3.894 3.547-1.968 0-3.894-1.182-3.894-3.547v-8.23zm1.355 8.23c0 1.42 1.25 2.15 2.54 2.15 1.269 0 2.518-.73 2.518-2.15v-8.23c0-1.397-1.25-2.127-2.519-2.127-1.29 0-2.54.73-2.54 2.127v8.23zM56.929 37.6l-5.1.042v5.18h4.76v1.397h-4.76v7.026h-1.377V37.428c0-.71.615-1.225 1.23-1.225h5.247V37.6z" fill="#54504E"/><path d="M102.783 35.135c-1.682 0-3.045-1.385-3.045-3.092 0-1.706 1.363-3.091 3.045-3.091 1.68 0 3.045 1.385 3.045 3.091 0 1.707-1.365 3.092-3.045 3.092m-16.348-1.554c-.5 0-.88-.17-1.187-.508-.304-.339-.446-.761-.446-1.27a18.227 18.227 0 011.547-7.023c.971-2.2 2.294-4.104 3.96-5.713a18.92 18.92 0 015.793-3.808 16.604 16.604 0 016.959-1.31c4.945.112 9.139 1.945 12.583 5.5a18.523 18.523 0 013.833 5.966 17.556 17.556 0 011.25 6.98c-.054 2.485-.54 4.811-1.457 6.981-.917 2.174-2.265 4.105-4.042 5.798-1.722 1.692-3.666 3.051-5.833 3.953-2.167.903-4.47 1.33-6.917 1.33h-.166c-.167 0-.542-.089-1.126-.145-.582-.056-1.318-.243-2.207-.497-.155-.044-.319-.11-.48-.162.74-.942 1.433-1.976 1.782-2.855.738.13 1.495.214 2.28.239.333 0 .667-.014 1-.043.333-.028.64-.043.917-.043a14.137 14.137 0 005.084-1.608 15.198 15.198 0 004.082-3.216 14.832 14.832 0 002.751-4.443 15.318 15.318 0 001.083-5.288c0-2.087-.361-4.048-1.083-5.882-.721-1.832-1.736-3.427-3.042-4.78a15.238 15.238 0 00-4.625-3.293 13.62 13.62 0 00-5.749-1.261h-.918c-.333 0-.666.063-1 .119a14.67 14.67 0 00-5 1.581 14.647 14.647 0 00-4.082 3.183 15.532 15.532 0 00-2.836 4.49c-.694 1.692-1.085 3.474-1.085 5.335v.085c0 1.072-.623 1.608-1.623 1.608M102.808.09c-17.282 0-31.291 14.303-31.291 31.945 0 17.643 14.01 31.944 31.291 31.944 17.282 0 31.291-14.301 31.291-31.944C134.1 14.394 120.09.09 102.81.09" fill="#EAE8E9"/><g transform="translate(72.564 2.476)"><mask id="c" fill="#fff"><use xlink:href="#a"/></mask><path d="M25.883.63c-3.737.493-7.356 1.737-10.753 3.697-3.434 1.983-6.343 4.543-8.647 7.61-2.309 3.08-3.984 6.47-4.975 10.07-.99 3.596-1.27 7.354-.83 11.167.44 3.806 1.647 7.498 3.587 10.973.827 1.393 1.905 2.555 3.181 3.413 1.314.883 2.749 1.5 4.266 1.834 1.534.337 3.128.398 4.737.182a11.81 11.81 0 004.497-1.581l.792-.47c.183-.109.336-.218.453-.325l.086-.073c1.375-1.099 2.453-2.392 3.206-3.845l.617-1.188 1.32.224c2.997.513 5.801.015 8.574-1.52.202-.121.44-.276.66-.434.29-.205.55-.38.799-.531a12.554 12.554 0 003.041-3.406 13.478 13.478 0 001.672-4.252c.307-1.482.345-3.01.113-4.543a13.196 13.196 0 00-1.525-4.437 13.693 13.693 0 00-3.414-3.878c-1.348-1.035-2.825-1.771-4.39-2.187a13.423 13.423 0 00-4.958-.347c-1.678.187-3.307.747-4.844 1.66l-.79.471a4.273 4.273 0 00-.578.413l-.054.042a13.122 13.122 0 00-3.091 3.418 12.875 12.875 0 00-1.68 4.194 13.479 13.479 0 00-.125 4.616 11.82 11.82 0 001.553 4.386l.132.243c.837 1.823.318 3.572-1.356 4.569-.876.52-1.831.646-2.763.367-.875-.265-1.594-.84-2.083-1.664-1.341-2.38-2.162-4.888-2.462-7.49-.297-2.598-.1-5.153.588-7.597a20.96 20.96 0 013.366-6.806 18.863 18.863 0 015.911-5.189c4.732-2.672 9.777-3.33 14.995-1.955a20.189 20.189 0 016.96 3.421 19.037 19.037 0 015.088 5.855c1.314 2.331 2.151 4.803 2.486 7.344.337 2.56.13 5.17-.617 7.753-.681 2.51-1.92 4.766-3.364 6.897-3.244 4.789-4.599 7.57-15.834 16.865 0 0 3.181-.164 4.554-.401 1.91-.329 3.597-.721 5.016-1.168 1.404-.44 2.545-.873 3.391-1.288 1.156-.568 1.557-.787 1.694-.87a30.766 30.766 0 003.133-2.138c5.204-3.949 8.705-9.142 10.423-15.449 1.037-3.78 1.313-7.59.82-11.33-.495-3.753-1.717-7.397-3.633-10.83-1.905-3.413-4.402-6.304-7.423-8.593a30.926 30.926 0 00-10.226-5.085A28.865 28.865 0 0029.506.391c-1.213 0-2.421.08-3.623.238M28.3 34.173c-1.294-.329-2.29-1.106-2.886-2.253-.57-.99-.758-2.1-.541-3.215a4.747 4.747 0 011.687-2.812l.23-.162.359-.214c1.085-.646 2.33-.816 3.6-.493 1.267.323 2.279 1.068 2.923 2.154l.062.115c.546 1.083.696 2.19.451 3.288a4.792 4.792 0 01-1.532 2.582 2.875 2.875 0 01-.712.59l-.114.063a4.902 4.902 0 01-2.215.525c-.433 0-.873-.055-1.312-.168" fill="url(#b)" mask="url(#c)"/></g></g></svg>